HIERARCHY
ROOT Hips
{
    OFFSET   0.000000   0.000000   0.000000
    CHANNELS 6 Xposition Yposition Zposition Zrotation Xrotation Yrotation
    JOINT Chest
    {
        OFFSET   0.000000   8.007230   0.000000
        CHANNELS 3 Zrotation Xrotation Yrotation
        JOINT Chest2
        {
            OFFSET   0.000000  22.077100   0.000000
            CHANNELS 3 Zrotation Xrotation Yrotation
            JOINT Neck
            {
                OFFSET   0.000000  23.254800  -0.000021
                CHANNELS 3 Zrotation Xrotation Yrotation
                JOINT Head
                {
                    OFFSET   0.000000  14.370000   1.956610
                    CHANNELS 3 Zrotation Xrotation Yrotation
                    End Site
                    {
                        OFFSET   0.000000  19.566000   0.000000
                    }
                }
            }
            JOINT LeftCollar
            {
                OFFSET   3.911900  19.017000  -0.467063
                CHANNELS 3 Zrotation Xrotation Yrotation
                JOINT LeftShoulder
                {
                    OFFSET  10.383700   0.000000   0.000000
                    CHANNELS 3 Zrotation Xrotation Yrotation
                    JOINT LeftElbow
                    {
                        OFFSET  26.662100   0.001529   0.000325
                        CHANNELS 3 Zrotation Xrotation Yrotation
                        JOINT LeftWrist
                        {
                            OFFSET  28.869000  -0.000011  -0.000096
                            CHANNELS 3 Zrotation Xrotation Yrotation
                            JOINT LeftFinger0
                            {
                                OFFSET   2.044650  -2.323460   3.252850
                                CHANNELS 3 Zrotation Xrotation Yrotation
                                JOINT LeftFinger01
                                {
                                    OFFSET   3.088130   0.000000   0.000000
                                    CHANNELS 3 Zrotation Xrotation Yrotation
                                    JOINT LeftFinger02
                                    {
                                        OFFSET   2.639460   0.000000   0.000000
                                        CHANNELS 3 Zrotation Xrotation Yrotation
                                        End Site
                                        {
                                            OFFSET   2.582190   0.000000   0.000000
                                        }
                                    }
                                }
                            }
                            JOINT LeftFinger1
                            {
                                OFFSET   8.364480   0.000000   3.252850
                                CHANNELS 3 Zrotation Xrotation Yrotation
                                JOINT LeftFinger11
                                {
                                    OFFSET   4.646930   0.000000   0.000000
                                    CHANNELS 3 Zrotation Xrotation Yrotation
                                    JOINT LeftFinger12
                                    {
                                        OFFSET   2.323460   0.000000   0.000000
                                        CHANNELS 3 Zrotation Xrotation Yrotation
                                        End Site
                                        {
                                            OFFSET   2.273050   0.000000   0.000000
                                        }
                                    }
                                }
                            }
                            JOINT LeftFinger2
                            {
                                OFFSET   8.364480   0.000016   1.078090
                                CHANNELS 3 Zrotation Xrotation Yrotation
                                JOINT LeftFinger21
                                {
                                    OFFSET   5.111620   0.000000   0.000000
                                    CHANNELS 3 Zrotation Xrotation Yrotation
                                    JOINT LeftFinger22
                                    {
                                        OFFSET   2.788160   0.000017   0.000000
                                        CHANNELS 3 Zrotation Xrotation Yrotation
                                        End Site
                                        {
                                            OFFSET   2.727660   0.000000   0.000000
                                        }
                                    }
                                }
                            }
                            JOINT LeftFinger3
                            {
                                OFFSET   7.899780   0.000015  -1.078090
                                CHANNELS 3 Zrotation Xrotation Yrotation
                                JOINT LeftFinger31
                                {
                                    OFFSET   4.646920   0.000000   0.000000
                                    CHANNELS 3 Zrotation Xrotation Yrotation
                                    JOINT LeftFinger32
                                    {
                                        OFFSET   2.323470   0.000000   0.000000
                                        CHANNELS 3 Zrotation Xrotation Yrotation
                                        End Site
                                        {
                                            OFFSET   2.273050   0.000000   0.000000
                                        }
                                    }
                                }
                            }
                            JOINT LeftFinger4
                            {
                                OFFSET   7.435090   0.000000  -3.252850
                                CHANNELS 3 Zrotation Xrotation Yrotation
                                JOINT LeftFinger41
                                {
                                    OFFSET   3.717550   0.000000   0.000000
                                    CHANNELS 3 Zrotation Xrotation Yrotation
                                    JOINT LeftFinger42
                                    {
                                        OFFSET   1.858760   0.000000   0.000000
                                        CHANNELS 3 Zrotation Xrotation Yrotation
                                        End Site
                                        {
                                            OFFSET   1.818440   0.000000   0.000000
                                        }
                                    }
                                }
                            }
                        }
                    }
                }
            }
            JOINT RightCollar
            {
                OFFSET  -3.911900  19.017000  -0.467062
                CHANNELS 3 Zrotation Xrotation Yrotation
                JOINT RightShoulder
                {
                    OFFSET -10.383700   0.000015   0.000000
                    CHANNELS 3 Zrotation Xrotation Yrotation
                    JOINT RightElbow
                    {
                        OFFSET -26.662100   0.001341   0.000385
                        CHANNELS 3 Zrotation Xrotation Yrotation
                        JOINT RightWrist
                        {
                            OFFSET -28.869000   0.000025  -0.000080
                            CHANNELS 3 Zrotation Xrotation Yrotation
                            JOINT RightFinger0
                            {
                                OFFSET  -2.044650  -2.323490   3.252850
                                CHANNELS 3 Zrotation Xrotation Yrotation
                                JOINT RightFinger01
                                {
                                    OFFSET  -3.088130   0.000000   0.000000
                                    CHANNELS 3 Zrotation Xrotation Yrotation
                                    JOINT RightFinger02
                                    {
                                        OFFSET  -2.639460   0.000000   0.000000
                                        CHANNELS 3 Zrotation Xrotation Yrotation
                                        End Site
                                        {
                                            OFFSET  -2.582190   0.000000   0.000000
                                        }
                                    }
                                }
                            }
                            JOINT RightFinger1
                            {
                                OFFSET  -8.364480   0.000000   3.252850
                                CHANNELS 3 Zrotation Xrotation Yrotation
                                JOINT RightFinger11
                                {
                                    OFFSET  -4.646930   0.000000   0.000000
                                    CHANNELS 3 Zrotation Xrotation Yrotation
                                    JOINT RightFinger12
                                    {
                                        OFFSET  -2.323470   0.000000   0.000000
                                        CHANNELS 3 Zrotation Xrotation Yrotation
                                        End Site
                                        {
                                            OFFSET  -2.273050   0.000000   0.000000
                                        }
                                    }
                                }
                            }
                            JOINT RightFinger2
                            {
                                OFFSET  -8.364480   0.000000   1.078090
                                CHANNELS 3 Zrotation Xrotation Yrotation
                                JOINT RightFinger21
                                {
                                    OFFSET  -5.111610   0.000000   0.000000
                                    CHANNELS 3 Zrotation Xrotation Yrotation
                                    JOINT RightFinger22
                                    {
                                        OFFSET  -2.788160   0.000000   0.000000
                                        CHANNELS 3 Zrotation Xrotation Yrotation
                                        End Site
                                        {
                                            OFFSET  -2.727660   0.000000   0.000000
                                        }
                                    }
                                }
                            }
                            JOINT RightFinger3
                            {
                                OFFSET  -7.899780   0.000000  -1.078090
                                CHANNELS 3 Zrotation Xrotation Yrotation
                                JOINT RightFinger31
                                {
                                    OFFSET  -4.646920   0.000000   0.000000
                                    CHANNELS 3 Zrotation Xrotation Yrotation
                                    JOINT RightFinger32
                                    {
                                        OFFSET  -2.323470   0.000000   0.000000
                                        CHANNELS 3 Zrotation Xrotation Yrotation
                                        End Site
                                        {
                                            OFFSET  -2.273050   0.000000   0.000000
                                        }
                                    }
                                }
                            }
                            JOINT RightFinger4
                            {
                                OFFSET  -7.435090   0.000000  -3.252850
                                CHANNELS 3 Zrotation Xrotation Yrotation
                                JOINT RightFinger41
                                {
                                    OFFSET  -3.717550   0.000000   0.000000
                                    CHANNELS 3 Zrotation Xrotation Yrotation
                                    JOINT RightFinger42
                                    {
                                        OFFSET  -1.858770   0.000000   0.000000
                                        CHANNELS 3 Zrotation Xrotation Yrotation
                                        End Site
                                        {
                                            OFFSET  -1.818440   0.000000   0.000000
                                        }
                                    }
                                }
                            }
                        }
                    }
                }
            }
        }
    }
    JOINT LeftHip
    {
        OFFSET   9.783010   0.000000   0.000000
        CHANNELS 3 Zrotation Xrotation Yrotation
        JOINT LeftKnee
        {
            OFFSET   0.000070 -41.789100   0.000028
            CHANNELS 3 Zrotation Xrotation Yrotation
            JOINT LeftAnkle
            {
                OFFSET   0.000087 -41.133200  -0.000100
                CHANNELS 3 Zrotation Xrotation Yrotation
                JOINT LeftToe
                {
                    OFFSET   0.000000  -6.358960  14.674500
                    CHANNELS 3 Zrotation Xrotation Yrotation
                    End Site
                    {
                        OFFSET   0.000000   0.000000   3.913200
                    }
                }
            }
        }
    }
    JOINT RightHip
    {
        OFFSET  -9.783020   0.000000   0.000000
        CHANNELS 3 Zrotation Xrotation Yrotation
        JOINT RightKnee
        {
            OFFSET   0.000044 -41.789100  -0.000870
            CHANNELS 3 Zrotation Xrotation Yrotation
            JOINT RightAnkle
            {
                OFFSET  -0.000090 -41.133200  -0.000245
                CHANNELS 3 Zrotation Xrotation Yrotation
                JOINT RightToe
                {
                    OFFSET   0.000000  -6.358960  14.674500
                    CHANNELS 3 Zrotation Xrotation Yrotation
                    End Site
                    {
                        OFFSET   0.000000   0.000000   3.913200
                    }
                }
            }
        }
    }
}
MOTION
Frames: 4
Frame Time:   0.016667
  0.715746  89.457200  -0.787364  -1.122240  -6.228400   1.448260   0.992309   5.624100   1.554190   1.843670  11.272500   3.031690   0.213855 -12.108500   0.044783   0.399568 -24.552400  -3.254270  -9.002420  -2.388980   7.081550 -75.825700  13.206200  -2.786590   0.195864   5.964710 -16.181800  10.657600  -7.245350  -2.103450  43.348900  37.337300 -53.028700 -30.891800   0.002714   0.003192 -10.445900   0.000953   0.001915 -33.326300  -0.667184   1.015050 -27.271500   0.003959  -0.007972 -19.090100   0.003347  -0.009625 -26.998400  -4.314170   8.399170 -28.335100  -0.001514  -0.011188 -18.871200  -0.001048   0.004065 -28.365400  -4.908570   9.005740 -40.232800  -0.000732   0.000849 -26.795100   0.010332  -0.004552 -36.084100  -6.077730   8.266180 -54.779700  -0.003436  -0.010604 -36.483400  -0.002377  -0.000794  11.463700   0.902889  13.017100  53.044800  12.111800  41.043300  -1.824660  -5.521330 110.730000   5.572710  20.493500  20.567800 -47.541200  27.775600  57.404200   9.630390   0.009953  -0.035964  -0.184807   0.004773  -0.018431  33.360800   4.467160   6.741210  27.514000   0.004098   0.001387  19.261900   0.003273  -0.001757  28.254500   3.838620   7.105370  36.078400   0.008094   0.002671  24.028300   0.006704  -0.004641  27.152700   3.018300   5.845880  27.723300   0.020328   0.009669  18.463700   0.014403  -0.003503  29.245300   0.636346   1.130940  43.855600   0.028602   0.003385  29.207900   0.017704  -0.008701   3.953920   7.893280  -0.493502   0.359941   0.876534  13.852600  -3.715730  -2.502780  -1.311200  -0.000000   0.000000   0.000000  -0.465997   7.663500  -4.986060  -0.392723   2.094950 -13.390500   0.435317  -2.684720   0.699546   0.000000   0.000000   0.000000
  0.702030  89.458800  -0.796381  -1.132790  -6.232590   1.394110   0.981079   5.642830   1.580500   1.817890  11.310000   3.085840   0.237980 -12.080000   0.049830   0.443164 -24.494000  -3.356060  -9.018180  -2.442250   7.065880 -75.803400  13.225900  -2.795820   0.267999   5.879140 -16.018300  10.683900  -8.116360  -2.112610  43.195700  37.107200 -52.717200 -30.892600   0.002717   0.003232 -10.446300   0.000979   0.001909 -33.410900  -0.723608   1.097260 -27.341600   0.003985  -0.008074 -19.139100   0.003406  -0.009743 -27.033300  -4.310510   8.379700 -28.490000  -0.001509  -0.011280 -18.974400  -0.001061   0.004122 -28.369700  -4.932690   9.047620 -40.511500  -0.000785   0.000849 -26.980700   0.010380  -0.004557 -36.214800  -6.124930   8.291200 -54.986900  -0.003430  -0.010765 -36.621300  -0.002380  -0.000820  11.539200   0.801593  13.038000  53.029600  12.201400  41.103600  -1.666870  -5.623680 110.597000   5.975270  19.151300  20.682600 -47.886800  28.139600  57.384600   9.763430   0.015690  -0.062402  -0.118270   0.007686  -0.031273  32.872900   4.385910   6.744290  27.107400   0.001859  -0.002089  18.975200   0.000700  -0.002060  28.169100   3.813320   7.080650  35.218700   0.008146  -0.002686  23.455700   0.003928  -0.004721  26.867400   3.047820   5.983200  27.109800   0.030005   0.011244  18.055100   0.021314  -0.003756  28.649800   0.551581   0.984754  42.936800   0.038598   0.003417  28.595900   0.023777  -0.010057   3.977750   7.907180  -0.472286   0.342290   0.872819  13.856700  -3.716590  -2.507410  -1.293560  -0.000000   0.000000   0.000000  -0.456408   7.659320  -4.988760  -0.389119   2.083740 -13.376600   0.425279  -2.671270   0.746296   0.000000   0.000000  -0.000000
  0.685668  89.462600  -0.806889  -1.139830  -6.234110   1.357310   0.970704   5.662140   1.613770   1.793170  11.348800   3.153740   0.246447 -12.064200   0.051567   0.459603 -24.462100  -3.476030  -9.022110  -2.504740   7.064400 -75.791500  13.198300  -2.811270   0.289932   5.694220 -15.982400  10.573000  -8.700120  -2.021520  43.091800  36.910700 -52.622600 -30.850200   0.002723   0.003268 -10.425100   0.000999   0.001922 -33.408100  -0.694733   1.053490 -27.338900   0.004017  -0.008180 -19.137200   0.003463  -0.009859 -27.069900  -4.306790   8.359090 -28.653800  -0.001503  -0.011368 -19.083400  -0.001074   0.004180 -28.381500  -4.871340   8.932730 -40.657500  -0.000840   0.000849 -27.077900   0.010424  -0.004560 -36.234200  -6.050400   8.183930 -54.996900  -0.003423  -0.010918 -36.627900  -0.002384  -0.000847  11.617100   0.681352  13.068000  53.179200  12.188800  40.957700  -1.537160  -5.784370 110.647000   6.534030  17.828200  20.608400 -46.458400  26.210500  55.197400  10.985200   0.020208  -0.034738   0.492632   0.010350  -0.019911  32.728800   4.346040   6.770490  26.969700  -0.059376  -0.011425  18.860000  -0.042104   0.008009  28.112900   3.819850   7.112940  34.839000  -0.116879  -0.017545  23.202800  -0.075267   0.025462  26.356400   3.146470   6.367500  25.801800  -0.043661  -0.014531  17.183900  -0.030558  -0.004018  27.660300   0.800619   1.572930  41.473000  -0.021079  -0.004665  27.621000  -0.014332   0.002874   4.001210   7.919080  -0.498324   0.328655   0.866946  13.888200  -3.718520  -2.511240  -1.267600  -0.000000   0.000000  -0.000000  -0.441350   7.662200  -5.011480  -0.390237   2.064850 -13.356900   0.418158  -2.655630   0.785799  -0.000000   0.000000   0.000000
  0.675880  89.466600  -0.813410  -1.143340  -6.236400   1.341520   0.960384   5.680570   1.646960   1.768550  11.385900   3.221510   0.247708 -12.055700   0.052091   0.461580 -24.444900  -3.586180  -9.019160  -2.568440   7.064490 -75.786100  13.149900  -2.831320   0.281579   5.480300 -15.972100  10.424400  -8.961900  -1.894900  43.054400  36.783800 -52.634900 -30.782100   0.002730   0.003298 -10.391000   0.001017   0.001943 -33.387400  -0.639171   0.969742 -27.321300   0.004051  -0.008288 -19.124900   0.003521  -0.009974 -27.090100  -4.304750   8.347640 -28.744700  -0.001497  -0.011453 -19.144000  -0.001086   0.004238 -28.399700  -4.768390   8.740560 -40.702000  -0.000887   0.000848 -27.107500   0.010464  -0.004561 -36.250600  -5.920800   8.008090 -54.998300  -0.003415  -0.011064 -36.628800  -0.002387  -0.000876  11.678600   0.599972  13.097500  53.453500  12.106800  40.679600  -1.360190  -6.061730 110.752000   8.000740  15.095000  20.510000 -43.802700  22.364700  52.384100  12.093000   0.022454  -0.004599   1.046500   0.011810   0.010576  32.707100   4.330260   6.805020  26.940900  -0.118692  -0.018198  18.825200  -0.082703   0.018078  28.075300   3.866590   7.219300  34.712100  -0.241904  -0.028361  23.118400  -0.152082   0.055646  25.976500   3.342940   6.866420  24.897500  -0.118682  -0.042893  16.581700  -0.083975  -0.004298  26.992700   1.146700   2.290060  40.513500  -0.080756  -0.016621  26.982000  -0.052441   0.015804   4.017600   7.930020  -0.546787   0.320934   0.862905  13.935700  -3.721820  -2.514870  -1.250880  -0.000000   0.000000   0.000000  -0.429087   7.683900  -5.035910  -0.390225   2.026150 -13.344100   0.412054  -2.638800   0.815258   0.000000   0.000000   0.000000
